<svg  xmlns="http://www.w3.org/2000/svg" width="24" height="24" viewBox="0 0 24 24" fill="none" stroke="#2563eb" stroke-width="2" stroke-linecap="round" stroke-linejoin="round">
  <path d="M8 6v6"></path>
  <path d="M15 6v6"></path>
  <path d="M2 12h19.6"></path>
  <path d="M18 18h3s.5-1.7.8-2.8c.1-.4.2-.8.2-1.2 0-.4-.1-.8-.2-1.2l-1.4-5C20.1 6.8 19.1 6 18 6H4c-1.1 0-2.1.8-2.4 1.8l-1.4 5c-.1.4-.2.8-.2 1.2 0 .4.1.8.2 1.2.3 1.1.8 2.8.8 2.8h3"></path>
  <circle cx="7" cy="18" r="2"></circle>
  <circle cx="15" cy="18" r="2"></circle>
</svg>
 